<?xml version="1.0" encoding="UTF-8"?>
<svg version="1.1" xmlns="http://www.w3.org/2000/svg" width="1890" height="1890">
<path d="M0 0 C8.60317363 6.12333712 15.83176099 14.30061738 23.19833374 21.8364563 C25.18122262 23.85441248 27.18433036 25.85164635 29.1881094 27.84882736 C31.14450863 29.80240151 33.09045418 31.76612791 35.03331184 33.73316193 C36.38660079 35.10131309 37.74612283 36.46329017 39.10585022 37.82504272 C48.10176165 47.06105846 56.41426237 57.79101792 57.29519653 71.06509399 C57.08046725 82.67836962 48.23212166 90.33924651 40.87332153 98.41275024 C35.31002464 104.53526936 30.27386534 111.03571877 25.24832153 117.60025024 C24.7752356 118.21642212 24.30214966 118.83259399 23.81472778 119.46743774 C9.64213876 137.98014211 -3.29951254 157.2860254 -15.959198 176.84976196 C-17.86940301 179.78089376 -19.80643222 182.69228647 -21.75167847 185.60025024 C-20.97308472 185.52806274 -20.19449097 185.45587524 -19.39230347 185.38150024 C10.33923834 182.9152894 39.70956816 184.85978027 64.24832153 203.60025024 C73.80370099 211.77305541 82.69234419 220.76400656 91.61282349 229.61465454 C93.16152736 231.14675644 94.71558304 232.67346738 96.27493286 234.19473267 C108.49988351 246.12467349 119.45327184 258.14696846 125.24832153 274.60025024 C125.24832153 275.59025024 125.24832153 276.58025024 125.24832153 277.60025024 C128.39550404 275.20358821 131.53209613 272.79574849 134.65066528 270.36196899 C136.83757821 268.66129584 139.02725776 267.06541378 141.31472778 265.49478149 C149.36427245 259.70672226 152.02932387 253.39237445 155.48513794 244.45962524 C164.68242357 222.05190696 186.48640328 203.03285098 208.18582153 193.28775024 C235.22749612 182.39261127 267.60399525 180.48699478 295.04910278 191.22915649 C314.24504404 199.45598846 327.43522046 212.2531992 342.01730347 226.87179565 C344.37016898 229.22040918 346.74449758 231.54728493 349.11355591 233.87954712 C361.34730332 246.03249136 372.4043849 258.00816885 378.24832153 274.60025024 C378.24832153 275.59025024 378.24832153 276.58025024 378.24832153 277.60025024 C388.2492607 271.79261825 393.47230284 264.15093787 399.77957153 254.74136353 C419.6269016 225.80833748 447.69614193 194.78706367 482.62332153 185.22525024 C500.71486517 181.95731778 517.39370378 186.63520551 532.48660278 196.77603149 C540.91360779 202.97582298 548.70648162 209.58953221 555.48269653 217.56900024 C557.43980292 219.82053857 559.47404414 221.96843449 561.56082153 224.10025024 C562.21695435 224.77056274 562.87308716 225.44087524 563.54910278 226.13150024 C565.12616923 227.81822917 565.12616923 227.81822917 567.24832153 227.60025024 C568.75346075 225.54942192 568.75346075 225.54942192 570.26785278 222.86978149 C571.17277466 221.34018799 571.17277466 221.34018799 572.09597778 219.7796936 C572.74437622 218.66860229 573.39277466 217.55751099 574.06082153 216.41275024 C575.08318767 214.68106831 576.10851847 212.9511667 577.13415527 211.22142029 C577.83073394 210.04656597 578.52654825 208.87125814 579.22161865 207.69551086 C582.33357406 202.43621555 585.5221079 197.22752685 588.74832153 192.03775024 C589.27151978 191.19567017 589.79471802 190.35359009 590.33377075 189.48599243 C591.97004297 186.85621593 593.60907821 184.22817558 595.24832153 181.60025024 C596.46577072 179.64452187 597.6832186 177.68879268 598.90066528 175.73306274 C605.05916364 165.85041284 611.24960131 155.98863008 617.49832153 146.16275024 C618.01579956 145.34878784 618.53327759 144.53482544 619.06643677 143.69619751 C628.52976249 128.84960436 638.16531383 114.12131242 647.93582153 99.47525024 C648.50280762 98.62507324 649.0697937 97.77489624 649.65396118 96.8989563 C658.69291479 83.35354117 667.78903315 69.85727159 677.24832153 56.60025024 C677.87158325 55.72449341 678.49484497 54.84873657 679.13699341 53.94644165 C680.99668637 51.34391841 682.86929441 48.75134006 684.74832153 46.16275024 C685.28811646 45.41090454 685.82791138 44.65905884 686.38406372 43.88442993 C691.67089062 36.68638739 697.2529243 29.97246912 705.49832153 26.16275024 C706.99105591 25.45312134 706.99105591 25.45312134 708.51394653 24.72915649 C723.07702514 18.71668547 744.04845559 21.54518617 758.28933716 27.44595337 C775.96831001 35.19181031 790.94867011 47.64683299 803.42019653 62.29165649 C807.97946245 67.52948844 812.98291347 72.29486347 818.01980591 77.06900024 C824.5786041 83.4684037 831.2389683 91.21685151 831.56082153 100.78775024 C831.45315877 106.82665268 829.53899928 111.01400118 825.55300903 115.51431274 C822.07447858 118.82384576 818.90652055 120.89290719 814.37332153 122.47525024 C808.06502195 124.73927187 803.94090955 128.94631616 799.24832153 133.60025024 C798.5586731 134.25251587 797.86902466 134.90478149 797.15847778 135.57681274 C792.57833325 139.984635 788.56082671 144.74806803 784.58425903 149.70181274 C782.26409857 152.58067406 779.88727269 155.40335 777.49832153 158.22525024 C771.80495345 165.04853291 766.44078601 172.10856844 761.07693481 179.19204712 C759.13007337 181.75597787 757.17266187 184.31158969 755.21316528 186.86587524 C748.15931645 196.0693656 741.20863214 205.31628727 734.5305481 214.79556274 C732.60000654 217.51273015 730.6342677 220.20402476 728.67236328 222.89859009 C723.73308971 229.69411668 718.87278512 236.53488718 714.13894653 243.47525024 C713.58238876 244.29015427 713.02583099 245.10505829 712.45240784 245.94465637 C706.34895212 254.896395 700.31765969 263.89597679 694.31082153 272.91275024 C693.7446109 273.76253448 693.17840027 274.61231873 692.59503174 275.487854 C680.79317926 293.21170115 669.33031893 311.10493396 658.24832153 329.28775024 C657.71052567 330.16866837 657.71052567 330.16866837 657.16186523 331.06738281 C652.6479873 338.47175962 648.32176036 345.94422967 644.24832153 353.60025024 C644.90244019 353.00236694 645.55655884 352.40448364 646.23049927 351.78848267 C650.55580787 347.84291305 654.92828562 344.0103533 659.49832153 340.35025024 C665.26498372 335.68784252 670.64138931 330.65956819 676.04519653 325.58853149 C678.38445245 323.3956477 680.75284512 321.25193651 683.18582153 319.16275024 C692.13604837 311.42774817 700.80276004 303.2626461 709.02566528 294.76040649 C710.914277 292.92490161 712.84164678 291.22709656 714.8430481 289.51870728 C719.45991666 285.48940405 723.70173389 281.15111432 727.95535278 276.74478149 C729.61002735 275.05312161 731.26565571 273.36239423 732.92214966 271.67251587 C735.49804773 269.04111652 738.06817756 266.40511239 740.62258911 263.75283813 C743.11296581 261.17108463 745.62556695 258.61277046 748.14285278 256.05728149 C748.89218582 255.2686824 749.64151886 254.48008331 750.41355896 253.66758728 C757.91864824 246.12409616 766.99769513 242.87269093 777.56082153 242.10025024 C783.57106716 242.22854777 786.25264768 245.44854838 790.24832153 249.60025024 C791.29378082 250.62906101 792.34218311 251.65488614 793.39285278 252.67837524 C798.68638972 257.86279069 803.84472336 263.10315764 808.62722778 268.76821899 C810.48537258 270.86814649 812.47607728 272.78345693 814.49832153 274.72525024 C819.66571628 279.88263066 821.56785619 283.99743822 821.64675903 291.25650024 C820.73537297 296.61759474 817.75705284 300.46906054 814.12332153 304.35025024 C813.06757935 305.48720337 813.06757935 305.48720337 811.99050903 306.64712524 C811.36889641 307.31040077 811.36889641 307.31040077 810.73472595 307.98707581 C809.61090735 309.20674081 808.5026155 310.44073715 807.40193176 311.68132019 C801.53730846 318.289418 795.40282012 324.59306927 789.15066528 330.83071899 C788.10637644 331.87568401 787.06223585 332.9207972 786.01823425 333.96604919 C783.8474419 336.13830251 781.67488583 338.30877132 779.50100708 340.47793579 C776.73532283 343.2379094 773.97417366 346.00236963 771.21433163 348.76818371 C769.06526876 350.92088355 766.91380101 353.07116727 764.7616291 355.22075844 C763.74316915 356.23855852 762.72543137 357.25708184 761.70847893 358.27638817 C756.05690243 363.93818344 750.32022041 369.39362986 744.24832153 374.60025024 C742.85567526 375.87868245 741.47042361 377.16533414 740.09988403 378.46743774 C739.40967163 379.12091187 738.71945923 379.77438599 738.0083313 380.44766235 C737.30377808 381.11676636 736.59922485 381.78587036 735.87332153 382.47525024 C730.47141236 387.58228643 725.05106257 392.65327891 719.49832153 397.59634399 C717.92722332 398.99560334 716.36541689 400.40533477 714.81082153 401.82290649 C710.59043369 405.66741604 706.31799496 409.39145331 701.87332153 412.97525024 C697.32102884 416.65555448 693.01307036 420.52400702 688.7336731 424.5116272 C685.46642052 427.53727226 682.10517857 430.38216864 678.62332153 433.16275024 C673.94883327 436.9225185 669.75666272 440.99496228 665.56082153 445.27603149 C663.00926554 447.84051767 660.36594062 450.22565062 657.61550903 452.57290649 C655.70621594 454.20809315 653.82156132 455.86311082 651.94363403 457.53384399 C634.1801051 473.26678366 605.50523513 498.130306 580.41629028 497.74771118 C566.858505 496.8255375 554.97424123 490.51124672 544.24832153 482.60025024 C543.19668823 481.83575562 543.19668823 481.83575562 542.12380981 481.05581665 C533.37307025 474.38989278 525.83668582 466.40750712 518.12332153 458.60025024 C516.67587498 457.14275198 515.22796186 455.68571689 513.77957153 454.22915649 C510.26375425 450.69150375 506.75430622 447.14764671 503.24832153 443.60025024 C499.92871439 444.70678596 499.21767583 445.52614302 497.03738403 448.14712524 C461.78475838 489.66647355 461.78475838 489.66647355 438.84207153 492.94400024 C425.17718678 493.53812567 411.8885734 487.03181624 401.93582153 478.10025024 C401.21781372 477.40931274 400.49980591 476.71837524 399.76004028 476.00650024 C397.80181375 474.13050095 395.82436747 472.37325349 393.76394653 470.61587524 C388.2823996 465.84408144 383.16700556 460.7049696 378.03079224 455.56802368 C376.32289098 453.86230427 374.60714109 452.16475998 372.89089966 450.46743774 C360.27824593 437.92131691 349.87581881 424.80868195 342.24832153 408.60025024 C341.71464966 409.38786743 341.18097778 410.17548462 340.63113403 410.98696899 C333.12445946 421.96125968 325.35055232 432.55523709 316.31863403 442.34243774 C314.46403287 444.36500279 312.69796993 446.43509008 310.93582153 448.53775024 C291.55814492 470.56990311 265.12498198 484.52575649 237.24832153 492.60025024 C236.09203247 492.95989868 234.93574341 493.31954712 233.74441528 493.69009399 C219.49859635 497.63816897 203.98341034 496.90343373 190.24832153 491.60025024 C189.60411255 491.35355591 188.95990356 491.10686157 188.2961731 490.85269165 C170.73146003 484.00421928 157.70042997 473.19033268 144.56643677 459.89981079 C141.89795778 457.20900503 139.20036035 454.61429581 136.31082153 452.16275024 C114.49853314 433.45346522 107.15515494 415.7863131 103.24832153 387.60025024 C102.41808472 388.86131592 102.41808472 388.86131592 101.57107544 390.14785767 C99.46994767 393.33639306 97.3622238 396.52052559 95.25271606 399.70352173 C94.34928422 401.06858326 93.44752661 402.43475465 92.54763794 403.80215454 C86.46610031 413.03997623 80.119149 421.93006369 73.24832153 430.60025024 C72.49784546 431.55254517 71.74736938 432.50484009 70.97415161 433.48599243 C47.18842675 463.45253768 17.59828053 484.18750737 -19.75167847 493.60025024 C-20.49015015 493.79312622 -21.22862183 493.9860022 -21.98947144 494.1847229 C-43.39387944 499.42728564 -64.02887172 493.37869145 -82.60714722 482.51528931 C-91.9107804 476.7595648 -99.41151868 469.28081965 -106.96261597 461.43228149 C-110.07416642 458.22081333 -113.35004798 455.28848568 -116.73898315 452.37490845 C-120.19885168 449.32423107 -123.43839863 446.05805428 -126.68917847 442.78775024 C-127.3601355 442.1206604 -128.03109253 441.45357056 -128.72238159 440.76626587 C-129.6785437 439.80817017 -129.6785437 439.80817017 -130.65402222 438.83071899 C-131.2262854 438.25732788 -131.79854858 437.68393677 -132.38815308 437.09317017 C-133.75167847 435.60025024 -133.75167847 435.60025024 -134.75167847 433.60025024 C-137.67982518 442.39780849 -139.85668025 451.1654137 -141.5619812 460.27627563 C-141.94113739 462.29819659 -142.3328879 464.31738549 -142.72628784 466.33657837 C-147.8387225 492.90332092 -149.23226536 520.53782165 -133.59152222 543.81509399 C-130.06999874 549.14597772 -130.16221823 554.39305537 -130.75167847 560.60025024 C-134.49213004 569.86232081 -146.84129069 574.44493651 -155.43136597 578.25259399 C-185.16502631 590.32096202 -215.64825652 586.56728799 -244.75167847 574.91275024 C-257.20020275 569.37691847 -268.65672847 561.72882063 -278.75167847 552.60025024 C-279.24651733 552.15455688 -279.7413562 551.70886353 -280.25119019 551.24966431 C-293.09960479 539.52392671 -304.00182614 524.01918198 -304.8744812 506.07510376 C-305.62418131 479.03804676 -299.60611802 455.35015282 -291.75167847 429.60025024 C-292.32015503 430.14294556 -292.88863159 430.68564087 -293.47433472 431.24478149 C-302.07777508 439.21624961 -309.49185334 442.02788526 -321.26339722 441.86978149 C-352.91045523 439.4244881 -376.14467891 418.39488836 -397.44039917 397.09683228 C-399.70347316 394.83596951 -401.97446787 392.58326239 -404.24581909 390.33071899 C-405.69487499 388.88459343 -407.1434599 387.43799572 -408.59152222 385.99087524 C-409.60399269 384.98918304 -409.60399269 384.98918304 -410.63691711 383.96725464 C-413.89970658 380.68848508 -416.47435494 377.66288588 -418.75167847 373.60025024 C-419.41167847 373.27025024 -420.07167847 372.94025024 -420.75167847 372.60025024 C-420.96566284 373.24349243 -421.17964722 373.88673462 -421.40011597 374.54946899 C-423.28579839 378.80587932 -425.81391076 382.53541011 -428.37667847 386.41275024 C-428.9449939 387.27932251 -429.51330933 388.14589478 -430.09884644 389.03872681 C-431.97695187 391.8966913 -433.86320485 394.74912721 -435.75167847 397.60025024 C-436.41167847 398.59782349 -437.07167847 399.59539673 -437.75167847 400.62319946 C-449.80243783 418.81810801 -462.09275607 436.82338071 -474.75167847 454.60025024 C-475.25924683 455.3140686 -475.76681519 456.02788696 -476.2897644 456.76333618 C-491.36082872 477.91987758 -507.14842867 498.62006828 -523.75167847 518.60025024 C-524.1741687 519.10910767 -524.59665894 519.61796509 -525.0319519 520.14224243 C-531.27931353 527.64911597 -537.71680693 534.93969087 -544.36349487 542.09439087 C-545.79071408 543.64259489 -547.20070163 545.20503892 -548.60714722 546.77212524 C-553.69734099 552.43032347 -558.85551876 557.7677115 -564.75167847 562.60025024 C-565.79968628 563.53224243 -565.79968628 563.53224243 -566.86886597 564.48306274 C-586.76947025 581.56944016 -611.97583825 588.32553446 -637.75167847 586.60025024 C-659.80524771 583.60688342 -679.64848892 566.18381021 -692.81149292 549.06558228 C-713.99355651 520.60518496 -727.34490077 483.15155033 -722.24386597 447.47134399 C-720.4881852 438.76357099 -717.2729079 431.68216202 -709.75167847 426.60025024 C-707.22132452 425.33507327 -705.58935648 425.54813019 -702.76339722 425.64321899 C-686.35668103 426.13560331 -686.35668103 426.13560331 -670.75167847 421.60025024 C-670.12358276 421.31585083 -669.49548706 421.03145142 -668.84835815 420.73843384 C-646.3298539 410.38379881 -627.33007667 394.91295034 -609.33956909 378.07485962 C-606.94012447 375.84659309 -604.49741023 373.66650316 -602.06417847 371.47525024 C-596.72477767 366.58435912 -591.56760795 361.52397199 -586.43917847 356.41275024 C-585.30959717 355.29005737 -585.30959717 355.29005737 -584.15719604 354.14468384 C-580.0776482 350.05385031 -576.17251381 345.87306307 -572.40231323 341.4960022 C-569.80831412 338.51679748 -567.08683183 335.66086111 -564.37667847 332.78775024 C-559.74571632 327.83930052 -555.34669651 322.7815228 -551.11105347 317.48696899 C-548.85005873 314.72061947 -546.52001268 312.03628839 -544.15817261 309.3565979 C-537.19212411 301.44497377 -530.7641492 293.21751723 -524.42404175 284.80044556 C-522.15391441 281.81381964 -519.83695728 278.86514952 -517.51950073 275.91519165 C-509.99588939 266.3291071 -502.78286748 256.55233139 -495.75167847 246.60025024 C-495.14630249 245.74366821 -494.54092651 244.88708618 -493.91720581 244.00454712 C-460.38228258 196.42434827 -428.93667173 147.10345566 -401.75167847 95.60025024 C-408.89379352 97.76341651 -415.28431399 100.68202152 -421.87667847 104.16275024 C-422.88641724 104.69360229 -423.89615601 105.22445435 -424.93649292 105.77139282 C-433.25890834 110.21235953 -441.10918766 115.08067355 -448.75167847 120.60025024 C-449.77003784 121.32599243 -450.78839722 122.05173462 -451.83761597 122.79946899 C-477.99179855 141.91742135 -501.75877576 166.3272785 -508.28292847 199.28384399 C-509.48587627 208.04622512 -507.76778889 214.94961391 -503.56417847 222.66275024 C-501.17970565 227.23250158 -499.88291303 230.44805673 -500.95089722 235.56509399 C-503.07036279 240.95163821 -506.08794397 243.81623376 -511.28292847 246.26431274 C-516.38017583 248.03904394 -521.33273888 248.13457511 -526.68917847 248.10025024 C-527.7304187 248.09525513 -528.77165894 248.09026001 -529.8444519 248.08511353 C-569.60646503 247.22227427 -612.14714515 230.13233494 -640.36740112 202.04605103 C-654.40362258 187.3859975 -659.81514076 170.39595403 -659.75167847 150.60025024 C-657.96459861 119.65729346 -640.66002392 93.33014471 -618.75167847 72.60025024 C-566.21302637 27.21696983 -491.60630355 6.06871866 -423.75167847 -0.39974976 C-422.78351196 -0.49618774 -421.81534546 -0.59262573 -420.81784058 -0.69198608 C-408.55157385 -1.74843347 -396.24107298 -1.59768948 -383.93917847 -1.58724976 C-382.74313995 -1.58697784 -381.54710144 -1.58670593 -380.31481934 -1.58642578 C-300.47719077 -1.50298135 -300.47719077 -1.50298135 -270.04782104 28.9335022 C-267.93702152 31.0399027 -265.81068883 33.12974306 -263.68331909 35.21939087 C-262.32361745 36.57322737 -260.96486023 37.92801318 -259.60714722 39.28384399 C-258.97793869 39.89868149 -258.34873016 40.51351898 -257.70045471 41.14698792 C-251.89577336 47.01207548 -248.09121457 53.3634486 -247.54928589 61.72183228 C-247.80159053 66.55670749 -248.83058604 70.96669414 -249.98995972 75.65493774 C-250.48013514 77.70364374 -250.96977397 79.75247818 -251.45895386 81.80142212 C-251.72016022 82.88479858 -251.98136658 83.96817505 -252.25048828 85.0843811 C-263.61358458 132.4375055 -271.9321285 180.28894738 -279.53683472 228.36196899 C-279.82983459 230.21316597 -279.82983459 230.21316597 -280.12875366 232.10176086 C-281.07404099 238.1232854 -281.99676832 244.14818759 -282.8901062 250.17764282 C-283.0557457 251.29053177 -283.22138519 252.40342072 -283.39204407 253.55003357 C-283.71307443 256.27283255 -283.82191459 258.86299201 -283.75167847 261.60025024 C-282.53300315 260.17846237 -281.31433106 258.75667172 -280.09567261 257.33486938 C-279.01678721 256.0761973 -277.93784683 254.81757235 -276.8588562 253.55899048 C-274.1513045 250.4006367 -271.44440959 247.24172942 -268.73995972 244.08071899 C-249.40774902 221.49048779 -249.40774902 221.49048779 -242.00167847 213.35025024 C-239.05092966 210.10015011 -236.24870219 206.77407692 -233.50167847 203.35025024 C-228.84392647 197.58934646 -223.82086913 192.21804659 -218.75558472 186.81900024 C-215.92796838 183.8024117 -213.19115824 180.71870447 -210.48995972 177.58853149 C-208.27911358 175.05972096 -206.01571403 172.5815246 -203.75167847 170.10025024 C-200.92590463 167.00293057 -198.11949067 163.89620875 -195.37667847 160.72525024 C-191.77052938 156.57477677 -188.03205212 152.5509776 -184.2951355 148.51870728 C-181.2544095 145.23540544 -178.23763035 141.93365835 -175.25167847 138.60025024 C-163.01260219 124.95740895 -150.65063761 111.28012348 -137.56382751 98.44483948 C-135.86887631 96.71954611 -134.3041537 94.94349977 -132.7416687 93.09854126 C-127.89056936 87.52339724 -122.64016079 82.34442762 -117.41183472 77.12759399 C-116.31984656 76.03493035 -115.22800672 74.94211846 -114.13630676 73.84916687 C-111.85940725 71.57080187 -109.58073194 69.29423241 -107.30075073 67.01895142 C-104.39825405 64.12215129 -101.5002714 61.22088345 -98.60361576 58.31824398 C-96.35332417 56.0643156 -94.10062754 53.81280298 -91.8472271 51.56198311 C-90.77852719 50.49394387 -89.71055172 49.42517916 -88.64335823 48.35563469 C-83.36583137 43.06903144 -78.06290305 37.86307828 -72.38633728 33.00132751 C-70.40918838 31.30669965 -68.51656054 29.53636168 -66.63839722 27.73306274 C-65.95342163 27.07958862 -65.26844604 26.4261145 -64.56271362 25.75283813 C-63.86194702 25.08373413 -63.16118042 24.41463013 -62.43917847 23.72525024 C-56.8852424 18.46137316 -51.30254375 13.37229824 -45.29855347 8.62368774 C-43.4883091 7.18548746 -41.7098686 5.70685464 -39.95480347 4.20181274 C-26.63824656 -7.16508252 -15.54372763 -9.56535322 0 0 Z M-34.17745972 22.06118774 C-36.61471725 24.46515951 -39.12199771 26.55299286 -41.81417847 28.66275024 C-47.67698781 33.39809625 -53.11400142 38.54994895 -58.56246948 43.75283813 C-61.95882272 46.99261481 -65.37846011 50.17606955 -68.92745972 53.24868774 C-72.18888066 56.07549246 -75.23647284 59.01238906 -78.25167847 62.10025024 C-81.22894488 65.14925801 -84.22862124 68.04025936 -87.46237183 70.81533813 C-91.5658383 74.39210339 -95.44492178 78.14846685 -99.28683472 82.00259399 C-99.96918686 82.68398941 -100.651539 83.36538483 -101.35456848 84.06742859 C-102.78512283 85.49730765 -104.21443614 86.92842936 -105.64254761 88.36074829 C-107.80866921 90.53222736 -109.98008021 92.6983135 -112.15206909 94.86392212 C-113.55147834 96.26399226 -114.9505773 97.66437263 -116.34933472 99.06509399 C-117.30743797 100.0201609 -117.30743797 100.0201609 -118.28489685 100.99452209 C-122.05570568 104.78467966 -125.64082917 108.6837752 -129.11750793 112.74589539 C-132.00329978 116.0205121 -135.13662706 119.0458402 -138.25167847 122.10025024 C-142.77115032 126.57117308 -147.17748475 131.05324544 -151.28292847 135.91275024 C-152.86430816 137.72965457 -154.53365043 139.41236305 -156.25167847 141.10025024 C-158.54493883 143.35822967 -160.71595875 145.66021528 -162.81417847 148.10025024 C-166.31280043 152.15959944 -169.96185763 156.06672173 -173.62667847 159.97525024 C-179.07368776 165.78792188 -184.44623835 171.65775915 -189.75167847 177.60025024 C-191.29292298 179.30896445 -192.83459377 181.01729425 -194.37667847 182.72525024 C-197.599911 186.3053805 -200.78566964 189.91467788 -203.94699097 193.54946899 C-205.98125988 195.86113821 -208.05390156 198.13556455 -210.12667847 200.41275024 C-213.21804648 203.83254352 -216.17626878 207.31983548 -219.06417847 210.91275024 C-222.95294236 215.72450173 -227.0778256 220.24460568 -231.302948 224.75698853 C-235.26871702 229.01623711 -238.96230928 233.44898158 -242.60714722 237.98696899 C-244.75042802 240.59872648 -246.97548177 243.10390326 -249.25167847 245.60025024 C-252.36626515 249.01764397 -255.34354467 252.50547374 -258.25167847 256.10025024 C-261.15981227 259.69502675 -264.13709178 263.18285652 -267.25167847 266.60025024 C-271.09359786 270.82038968 -274.71283068 275.18052209 -278.30245972 279.61587524 C-281.06978546 282.98786387 -283.90314786 286.2969047 -286.75167847 289.60025024 C-290.30635061 293.72480636 -293.81960476 297.87233336 -297.25167847 302.10025024 C-300.6837586 306.32817504 -304.19719018 310.47552915 -307.75167847 314.60025024 C-312.06982808 319.61201322 -316.30074533 324.68243406 -320.47042847 329.81900024 C-323.050107 332.96408777 -325.6779818 336.06506112 -328.31417847 339.16275024 C-332.90244427 344.55712772 -337.36049695 350.04383079 -341.75167847 355.60025024 C-342.00668308 343.70343515 -341.2468143 332.00718328 -340.18917847 320.16275024 C-340.10242859 319.18039398 -340.01567871 318.19803772 -339.92630005 317.18591309 C-332.3217181 232.00187857 -318.37328703 146.01572483 -298.46261597 62.84243774 C-298.29148285 62.12588013 -298.12034973 61.40932251 -297.94403076 60.67105103 C-297.18299627 57.50224039 -296.40283709 54.33997602 -295.59298706 51.18325806 C-293.65451755 43.39679822 -293.65451755 43.39679822 -294.75167847 35.60025024 C-300.94869913 26.80180646 -312.78114245 24.3906412 -322.73117065 22.60977173 C-360.83176415 16.52744807 -402.63567201 17.17418011 -440.75167847 22.60025024 C-441.96226929 22.76653931 -443.17286011 22.93282837 -444.4201355 23.10415649 C-504.68960556 31.59835298 -565.52871258 52.27562539 -612.75167847 91.60025024 C-613.66562378 92.35950806 -614.57956909 93.11876587 -615.52120972 93.90103149 C-621.69140024 99.23715632 -626.80300114 105.12819277 -631.75167847 111.60025024 C-632.69527222 112.78554321 -632.69527222 112.78554321 -633.65792847 113.99478149 C-643.56002154 127.08899668 -647.3340818 142.37279103 -645.75167847 158.60025024 C-643.74300473 167.26547058 -639.69126464 174.07419232 -633.75167847 180.60025024 C-633.17933472 181.26411743 -632.60699097 181.92798462 -632.01730347 182.61196899 C-614.60741833 201.54707911 -584.68890542 211.67109903 -559.66964722 213.58071899 C-555.42678416 213.60911835 -551.82433912 212.75417076 -547.75167847 211.60025024 C-548.27284583 206.64916032 -549.89060702 202.50763211 -551.81417847 197.96743774 C-556.71668554 185.58860739 -553.92683391 170.73989362 -549.75167847 158.60025024 C-549.41265503 157.59864868 -549.07363159 156.59704712 -548.72433472 155.56509399 C-543.68170722 142.23174086 -535.14240227 130.20771235 -525.75167847 119.60025024 C-525.31178589 119.10009399 -524.87189331 118.59993774 -524.41867065 118.08462524 C-482.82946938 70.9871135 -421.52256421 49.944599 -360.75167847 42.60025024 C-375.25091124 77.00667524 -392.09179889 110.26774814 -410.75167847 142.60025024 C-411.31499878 143.57848755 -411.87831909 144.55672485 -412.45870972 145.56460571 C-433.39172177 181.86070026 -455.8019608 217.21818337 -479.75167847 251.60025024 C-480.21751343 252.26943481 -480.68334839 252.93861938 -481.16329956 253.62808228 C-493.24642095 270.94981091 -505.82570394 287.89932261 -518.75167847 304.60025024 C-519.2163855 305.20143677 -519.68109253 305.80262329 -520.15988159 306.42202759 C-534.73911817 325.2439269 -550.04228015 343.47716341 -566.23043823 360.93545532 C-567.39489104 362.20979391 -568.546717 363.49568101 -569.69284058 364.78652954 C-575.07419725 370.840481 -580.65040299 376.65503788 -586.39059448 382.36953735 C-587.82007563 383.79362516 -589.24408358 385.22303068 -590.66769409 386.65298462 C-595.86742543 391.84547903 -601.15335462 396.84163603 -606.75167847 401.60025024 C-607.72749878 402.45747681 -608.70331909 403.31470337 -609.70870972 404.19790649 C-628.5649371 420.47462261 -648.97240522 435.50869199 -672.75167847 443.60025024 C-673.65917847 443.93798462 -674.56667847 444.27571899 -675.50167847 444.62368774 C-686.10361043 447.98302084 -697.76252889 446.86018282 -708.75167847 446.60025024 C-715.00726931 459.43724395 -710.05386309 474.66032619 -705.75167847 487.60025024 C-696.97625811 512.02195581 -684.00759389 534.71936836 -659.85324097 546.28775024 C-650.12263472 550.4054879 -639.35541144 549.57691149 -629.60714722 545.84243774 C-609.08050746 536.91292825 -593.14009388 519.34096615 -578.75167847 502.60025024 C-577.77803271 501.48279032 -576.80408982 500.3655892 -575.82980347 499.24868774 C-569.86342945 492.3596893 -564.10956026 485.34552651 -558.52120972 478.14712524 C-556.66795286 475.76201851 -554.79085694 473.39942033 -552.88839722 471.05337524 C-544.84730277 461.13705307 -537.25536495 450.92758684 -529.75167847 440.60025024 C-528.92965942 439.47248169 -528.92965942 439.47248169 -528.09103394 438.32192993 C-524.28574048 433.09951636 -520.50822646 427.85782904 -516.75167847 422.60025024 C-516.23234741 421.87418579 -515.71301636 421.14812134 -515.177948 420.40005493 C-499.39352889 398.26378638 -484.3561368 375.53088815 -469.75167847 352.60025024 C-469.31339722 351.91591919 -468.87511597 351.23158813 -468.42355347 350.52651978 C-431.93943272 293.53289155 -399.86322681 234.15746278 -369.75167847 173.60025024 C-369.75167847 176.39894536 -370.09610007 178.06792757 -370.92233276 180.69302368 C-371.18117752 181.52394028 -371.44002228 182.35485687 -371.70671082 183.21095276 C-371.99354233 184.11801468 -372.28037384 185.0250766 -372.57589722 185.95962524 C-373.19260078 187.93909607 -373.80895847 189.91867468 -374.42501831 191.89834595 C-374.75314514 192.94833771 -375.08127197 193.99832947 -375.41934204 195.08013916 C-383.4307473 220.76875398 -390.83616217 246.59622813 -397.75167847 272.60025024 C-397.97339722 273.4327832 -398.19511597 274.26531616 -398.42355347 275.12307739 C-414.43796821 323.31099293 -414.43796821 323.31099293 -413.25167847 370.91275024 C-412.13100819 372.78590638 -412.13100819 372.78590638 -410.75167847 374.60025024 C-410.23863159 375.31439087 -409.72558472 376.02853149 -409.19699097 376.76431274 C-395.63403343 393.70345714 -369.96443064 402.99459101 -349.10324097 405.97915649 C-343.74053928 406.36999363 -343.74053928 406.36999363 -338.90402222 404.37759399 C-336.98401778 402.23115168 -335.38833248 399.97172851 -333.75167847 397.60025024 C-332.8897793 396.44264812 -332.02212545 395.2893181 -331.15011597 394.13931274 C-329.1096309 391.44664297 -327.08571239 388.74267797 -325.07199097 386.02993774 C-321.6339867 381.41918516 -318.10606308 376.8814347 -314.56417847 372.35025024 C-310.07055821 366.59587789 -305.62872556 360.81133198 -301.26730347 354.95571899 C-297.92216551 350.4773245 -294.51910888 346.04284304 -291.12667847 341.60025024 C-285.69241873 334.48266583 -280.29824913 327.33708993 -274.93917847 320.16275024 C-269.89918315 313.42236657 -264.78604713 306.75200846 -259.56027222 300.15493774 C-256.26276346 295.99178841 -253.00844129 291.79529812 -249.75167847 287.60025024 C-244.65092118 281.03463175 -239.53213107 274.48380773 -234.38839722 267.95181274 C-232.61540672 265.70029204 -230.84755092 263.44488261 -229.08370972 261.18618774 C-222.62643331 252.92489585 -216.04732319 244.76909841 -209.41769409 236.6456604 C-207.7485021 234.59635053 -206.08512736 232.54245891 -204.42355347 230.48696899 C-198.89833921 223.65589881 -193.33006001 216.87101018 -187.63400269 210.18154907 C-184.80089811 206.85174481 -182.0113417 203.49111305 -179.25167847 200.10025024 C-174.16878039 193.86173768 -168.96986722 187.72557158 -163.75167847 181.60025024 C-163.25200562 181.01276001 -162.75233276 180.42526978 -162.23751831 179.81997681 C-157.24667254 173.95529691 -152.24709793 168.10945476 -147.06417847 162.41275024 C-143.96199839 159.00203508 -141.01929572 155.50291264 -138.12667847 151.91275024 C-134.56857382 147.51780914 -130.82851492 143.50877694 -126.75167847 139.60025024 C-125.08360619 137.93499038 -123.41681585 136.26844479 -121.75167847 134.60025024 C-122.52076538 135.76874512 -122.52076538 135.76874512 -123.3053894 136.96084595 C-149.37096848 176.58741315 -174.02251244 216.95195964 -196.75167847 258.60025024 C-197.37284546 259.73671997 -197.99401245 260.8731897 -198.63400269 262.0440979 C-218.821046 299.13603449 -238.0931573 336.96075612 -254.92526245 375.70065308 C-255.77694185 377.65832058 -256.63401202 379.61356361 -257.49191284 381.56851196 C-270.17226438 410.51792368 -282.50588678 440.04545581 -290.75167847 470.60025024 C-291.10745972 471.85321899 -291.46324097 473.10618774 -291.82980347 474.39712524 C-295.62887974 489.386208 -295.85225204 506.55283851 -288.24386597 520.33071899 C-278.61853863 535.12686171 -264.20279344 541.97117036 -247.54074097 545.87368774 C-225.33702426 550.13130765 -197.75129371 549.20663254 -178.17745972 536.84634399 C-176.45463356 535.55281829 -176.45463356 535.55281829 -175.75167847 532.60025024 C-177.05712966 530.42249295 -178.40441852 528.40971049 -179.87667847 526.35025024 C-190.14751637 511.19971955 -192.1746818 494.02706915 -192.12667847 476.10025024 C-192.12586273 474.95074387 -192.12586273 474.95074387 -192.12503052 473.77801514 C-192.07754436 459.11865963 -190.6264866 444.99191428 -187.75167847 430.60025024 C-187.54268921 429.54112427 -187.33369995 428.48199829 -187.11837769 427.39077759 C-173.55145267 360.45045167 -143.65337264 294.03882366 -110.49777222 234.56509399 C-108.31356248 230.64625327 -106.2268914 226.68765937 -104.17721558 222.69717407 C-97.86217013 210.42513249 -90.77054673 198.62018888 -83.66769409 186.79458618 C-81.95267075 183.93533982 -80.24789499 181.07039624 -78.54855347 178.20181274 C-53.83566835 136.56380206 -26.62011033 92.44534377 7.63894653 57.81118774 C9.67361813 55.01598356 10.05300925 53.03597089 10.24832153 49.60025024 C7.43585479 36.77871067 -3.5865168 24.04405747 -14.31417847 16.97525024 C-23.30112828 13.38047032 -27.43354549 15.38956662 -34.17745972 22.06118774 Z M702.79324341 46.33682251 C701.2537211 48.37471582 699.7746219 50.44479877 698.31082153 52.53775024 C697.74999878 53.32786499 697.18917603 54.11797974 696.61135864 54.93203735 C694.81132472 57.47970507 693.02709179 60.03769723 691.24832153 62.60025024 C690.68500122 63.41139282 690.12168091 64.2225354 689.54129028 65.05825806 C672.8836376 89.13526753 656.74480063 113.59624527 640.82546997 138.16616821 C639.34628497 140.44905899 637.8641475 142.73000163 636.38113403 145.01040649 C629.49862719 155.60552007 622.71128232 166.2609015 615.94314575 176.92935181 C614.38110972 179.39098739 612.8167962 181.85116136 611.25222778 184.31118774 C601.19289323 200.15446939 591.34326844 216.13086336 581.65847778 232.20571899 C580.89311888 233.47404279 580.1277382 234.74235345 579.36233521 236.01065063 C577.90566096 238.42483865 576.45483191 240.84240478 575.00735474 243.26211548 C565.12071369 259.66405416 565.12071369 259.66405416 561.24832153 261.60025024 C561.227052 260.72626587 561.227052 260.72626587 561.20535278 259.83462524 C560.18401285 242.27861992 548.43375138 227.99021359 535.94754028 216.47915649 C522.95570002 205.57111385 507.69276331 197.56987471 490.33425903 198.22134399 C476.54989733 199.91385423 464.5020033 208.77345623 454.24832153 217.60025024 C453.0842981 218.59798462 453.0842981 218.59798462 451.89675903 219.61587524 C440.74590899 229.42281176 430.40165419 239.90345294 421.24832153 251.60025024 C420.27240872 252.81146086 419.29441218 254.02099447 418.31472778 255.22915649 C417.27141231 256.51924075 416.22844855 257.80960952 415.18582153 259.10025024 C414.4069458 260.06366333 414.4069458 260.06366333 413.61233521 261.04653931 C410.69395043 264.68906947 408.01896973 268.39618133 405.43582153 272.28775024 C400.25820024 279.46653804 393.32228347 284.41655401 386.24832153 289.60025024 C385.10991821 290.44208862 385.10991821 290.44208862 383.94851685 291.30093384 C367.79474732 303.1693476 350.74789882 313.77482609 332.24832153 321.60025024 C332.64664185 320.48650024 333.04496216 319.37275024 333.45535278 318.22525024 C342.04112331 293.73659852 345.61949533 268.7155349 334.61477661 244.40664673 C325.51389 225.53031875 309.69905062 212.07048865 290.24832153 204.60025024 C263.54252483 195.78515748 236.49214669 195.97206743 210.90457153 208.19790649 C189.59089039 219.12863783 175.1717942 236.68485578 164.97488403 257.97134399 C164.67944702 258.58598511 164.38401001 259.20062622 164.07962036 259.83389282 C163.31222987 261.46445677 162.58499418 263.11375773 161.86160278 264.76431274 C147.63766499 289.76813559 103.64440193 310.44554932 78.24832153 322.60025024 C78.64664185 321.52388306 79.04496216 320.44751587 79.45535278 319.33853149 C83.69475209 307.71993194 87.56495292 296.04584218 88.24832153 283.60025024 C88.3011731 282.65021118 88.35402466 281.70017212 88.40847778 280.72134399 C89.02903704 258.73196161 81.59951506 239.35359681 66.56082153 223.35025024 C47.80112661 205.51553257 22.83629648 197.87946557 -2.66452026 198.12734985 C-28.99077374 198.98817285 -52.36671665 210.55498964 -70.48214722 229.44790649 C-81.92741792 242.63214856 -94.75167847 262.51020441 -94.75167847 280.60025024 C-95.32273315 280.41333618 -95.89378784 280.22642212 -96.48214722 280.03384399 C-101.16880026 279.13845933 -105.59212855 281.40693194 -109.64620972 283.64712524 C-125.89477113 295.53094894 -129.68044274 327.40601663 -132.75167847 345.60025024 C-136.2735325 368.50709914 -139.763765 402.05029754 -125.99777222 422.16275024 C-113.4052064 438.7228368 -94.04633498 449.55487885 -73.75167847 453.60025024 C-49.33290945 456.73311389 -21.32584702 444.39630572 -2.18917847 429.85025024 C14.75922293 416.57018933 28.50305738 400.8580158 41.24832153 383.60025024 C41.7009436 382.98891235 42.15356567 382.37757446 42.61990356 381.74771118 C48.68342624 373.51749586 54.29897721 365.02525543 59.80300903 356.41275024 C60.22332397 355.76451294 60.64363892 355.11627563 61.07669067 354.44839478 C62.13679775 352.77616919 63.12861136 351.06112715 64.11160278 349.34243774 C66.76714306 345.93441347 69.71185599 344.44891542 73.56082153 342.72525024 C75.01976251 342.0286047 76.47808394 341.33066037 77.93582153 340.63150024 C78.66671997 340.28732056 79.39761841 339.94314087 80.15066528 339.58853149 C97.1165038 331.59531521 113.34684445 320.99105916 128.24832153 309.60025024 C127.18813102 314.38583244 126.11933734 319.16897306 125.02957153 323.94790649 C118.44739549 353.09862989 111.14046051 393.02669717 126.27566528 420.69400024 C137.72996251 437.5692421 157.65218892 448.85096058 177.29129028 453.12368774 C201.37046787 457.0043478 228.84310271 445.95383354 248.26882935 432.16616821 C262.60019016 421.46444813 275.28802657 408.70569408 286.24832153 394.60025024 C287.35192017 393.20250366 287.35192017 393.20250366 288.47781372 391.77651978 C294.96686421 383.47815053 300.88978413 374.89259028 306.68582153 366.10025024 C307.57799062 364.75622863 308.4705674 363.41247756 309.36355591 362.06900024 C310.22003956 360.77757482 311.07617278 359.4859169 311.93191528 358.19400024 C312.51784706 357.30956238 312.51784706 357.30956238 313.11561584 356.40725708 C314.75993782 353.9120916 316.34249221 351.42982341 317.7883606 348.81314087 C319.37529944 346.40778741 320.30687299 345.69627903 322.92410278 344.60025024 C323.65846558 344.27750122 324.39282837 343.9547522 325.14944458 343.6222229 C325.94519897 343.28497192 326.74095337 342.94772095 327.56082153 342.60025024 C344.89367813 334.81227235 360.78693268 324.58123664 376.24832153 313.60025024 C377.23832153 312.94025024 378.22832153 312.28025024 379.24832153 311.60025024 C377.81507368 315.55349432 375.92364656 319.14652779 373.92263794 322.83047485 C361.3719011 345.96278934 348.67700995 372.11675449 355.81082153 398.97525024 C359.6640931 410.46746368 365.0999994 420.58675877 373.24832153 429.60025024 C373.87480591 430.30794556 374.50129028 431.01564087 375.14675903 431.74478149 C383.92439358 441.11356286 396.45522833 448.84693538 409.49832153 449.85025024 C423.27127985 448.93205302 432.72292889 437.44203046 441.87210083 428.18228149 C443.43901776 426.5970166 445.01388121 425.01999302 446.59011841 423.44400024 C451.45346169 418.56353285 456.21593794 413.63396061 460.69876099 408.39712524 C463.29596718 405.38539724 466.0283675 402.50076852 468.74832153 399.60025024 C472.76531988 395.29583464 476.73965509 390.97052584 480.58425903 386.51040649 C482.56372279 384.23820514 484.59415323 382.01565152 486.62332153 379.78775024 C489.7525498 376.32494942 492.75332502 372.79346021 495.68582153 369.16275024 C498.79791525 365.3120095 502.0174198 361.61546438 505.37332153 357.97525024 C509.6088061 353.37577872 513.51173002 348.61124218 517.24832153 343.60025024 C514.50994095 352.13066606 511.23824457 360.42331086 507.92019653 368.74282837 C501.61388043 384.8600248 496.9254154 401.8035225 503.24832153 418.60025024 C510.5835227 434.7676324 527.28010912 446.53969164 543.06472778 453.82290649 C551.88534648 456.96298363 560.75199009 452.6831833 568.75613403 448.97525024 C578.95330044 443.8910254 588.12044124 437.37769014 597.24832153 430.60025024 C597.84419067 430.15890747 598.44005981 429.7175647 599.0539856 429.2628479 C607.40393917 423.04230016 615.35708653 416.38495669 623.24832153 409.60025024 C624.39390614 408.61949089 625.5397428 407.63902589 626.68582153 406.65884399 C629.02649559 404.65610721 631.364817 402.65067276 633.70144653 400.64321899 C636.08215314 398.59857346 638.46784962 396.55998499 640.85769653 394.52603149 C647.26993263 389.06269133 653.58910207 383.52788137 659.79910278 377.83462524 C662.57061677 375.30622652 665.38959156 372.83841024 668.22097778 370.37759399 C671.4509523 367.54592077 674.63022809 364.65822517 677.81863403 361.77993774 C679.90438333 359.9087993 682.00649782 358.06100193 684.12332153 356.22525024 C689.06860625 351.91550412 693.88075543 347.46074956 698.70584106 343.01773071 C700.16332137 341.67836214 701.62559863 340.344219 703.08816528 339.01040649 C717.40639788 325.94919294 731.41467641 312.60274131 745.09988403 298.87905884 C747.4034128 296.57008789 749.71235289 294.26662247 752.02175903 291.96353149 C753.516872 290.46775884 755.01167534 288.97167661 756.50613403 287.47525024 C757.52031906 286.46410156 757.52031906 286.46410156 758.55499268 285.43252563 C762.44556833 281.52294609 766.15561782 277.50738883 769.75160217 273.32478333 C772.30916143 270.37794128 775.03759014 267.58558245 777.74441528 264.77603149 C779.56396759 262.14358828 779.63466484 260.73798437 779.24832153 257.60025024 C778.31234838 255.58073963 778.31234838 255.58073963 776.24832153 254.60025024 C770.68640822 254.6881055 768.07858509 256.09009777 764.35379028 259.91860962 C763.55908325 260.78195923 763.55908325 260.78195923 762.74832153 261.66275024 C761.9536145 262.48549438 761.9536145 262.48549438 761.14285278 263.32485962 C758.41140158 266.17866397 755.80430534 269.11606949 753.24441528 272.12368774 C748.04876858 278.09803433 742.37428325 283.62294583 736.76956177 289.2093811 C734.8153653 291.15821894 732.86657006 293.11234296 730.91824341 295.06704712 C725.3915462 300.5963915 719.88577438 306.07810477 713.92385864 311.14297485 C711.04810269 313.6441241 708.41053394 316.37599214 705.74832153 319.10025024 C701.73050778 323.16351828 697.68580375 327.10341659 693.32644653 330.80337524 C691.16750151 332.67013222 689.07291661 334.59913916 686.98147583 336.54092407 C681.84703448 341.3055494 676.59982841 345.84485971 671.13894653 350.23696899 C668.50115353 352.393543 665.9255283 354.60242054 663.35769653 356.84072876 C655.6103468 363.58367124 647.55929785 369.85375433 639.34793091 376.01968384 C637.36478392 377.51257844 635.39119172 379.01714788 633.42019653 380.52603149 C618.29496631 392.06146225 602.78723117 403.11420019 586.43582153 412.85025024 C585.55974243 413.37481812 584.68366333 413.89938599 583.78103638 414.43984985 C569.15912612 422.9676657 569.15912612 422.9676657 561.24832153 422.60025024 C558.30470357 381.38959874 596.03445462 330.75589107 616.24832153 297.60025024 C616.89559204 296.53661255 617.54286255 295.47297485 618.20974731 294.37710571 C642.46555594 254.56886739 668.12312672 215.51885983 695.24832153 177.60025024 C695.74718872 176.89948364 696.24605591 176.19871704 696.76004028 175.47671509 C705.65964028 162.98196812 714.88259465 150.74869309 724.24832153 138.60025024 C724.77200317 137.91914185 725.29568481 137.23803345 725.8352356 136.5362854 C732.68864816 127.63883216 739.87118764 119.06709299 747.24832153 110.60025024 C748.23638794 109.45942993 748.23638794 109.45942993 749.24441528 108.29556274 C750.34501109 107.02975047 751.45149988 105.76903004 752.56472778 104.51431274 C753.80045671 103.1094237 755.01348774 101.68448473 756.21316528 100.24868774 C763.87415509 91.29932171 772.80019807 83.04143227 784.22488403 79.41665649 C786.52348482 78.48922876 787.69947675 77.52311947 789.24832153 75.60025024 C790.15170447 71.3844632 789.05239811 68.82489155 786.87332153 65.28775024 C776.19708161 50.48998514 757.1631222 40.09178186 739.55691528 36.10806274 C725.71672175 33.98382997 712.34793613 34.93371356 702.79324341 46.33682251 Z " fill="#FFFFFF" transform="translate(890.7516784667969,654.3997497558594)"/>
<path d="M0 0 C7.92022518 6.02072792 11.16694144 16.04312642 12.9375 25.44921875 C12.23273049 29.75963942 9.42874052 32.38907768 6.625 35.625 C5.42046913 37.05871587 4.2173591 38.49362658 3.015625 39.9296875 C2.41685547 40.63963867 1.81808594 41.34958984 1.20117188 42.08105469 C-1.15590175 44.91306106 -3.39230284 47.8186847 -5.625 50.75 C-13.47193282 61.02303766 -21.48501007 71.14980316 -29.66333008 81.16113281 C-32.70852445 84.89560952 -35.71053489 88.65732236 -38.66381836 92.46484375 C-44.479733 99.96294237 -50.62143315 107.13044517 -56.87695312 114.26367188 C-59.50615676 117.27887171 -62.09390911 120.32918467 -64.6875 123.375 C-69.04833941 128.48333037 -73.49964297 133.48935939 -78.05078125 138.4296875 C-79.35638209 139.86647312 -80.6569218 141.30855259 -81.91845703 142.78417969 C-87.04642008 148.77588158 -92.54161488 154.38697417 -98.10498047 159.97021484 C-99.74006733 161.61500837 -101.36413006 163.27019804 -102.98828125 164.92578125 C-120.17005262 182.28720234 -120.17005262 182.28720234 -128.8125 182.9375 C-133.86557971 182.47155624 -136.22406351 180.97422538 -139.5 177.125 C-145.57388338 162.49246277 -138.30247907 145.55703161 -132.74633789 131.88671875 C-120.51007863 102.74799633 -103.72349472 75.84061387 -82.984375 52.01171875 C-80.71619557 49.37620838 -78.57656611 46.67766027 -76.4375 43.9375 C-62.31109621 26.64657923 -26.27649703 -14.24994647 0 0 Z M-13.5 35.125 C-32.93059836 44.44449069 -48.42699594 63.63673017 -61.5 80.125 C-62.41792451 81.25239959 -63.3372797 82.37863534 -64.2578125 83.50390625 C-87.33200937 111.70958658 -87.33200937 111.70958658 -105.5 143.125 C-105.17 143.785 -104.84 144.445 -104.5 145.125 C-101.64153993 142.29597124 -98.78905016 139.46099221 -95.9375 136.625 C-95.13763672 135.83351563 -94.33777344 135.04203125 -93.51367188 134.2265625 C-89.22527048 129.95566478 -85.09947183 125.61834553 -81.15551758 121.02783203 C-78.40623684 117.86784175 -75.50592532 114.85197126 -72.625 111.8125 C-67.70506227 106.5855134 -63.04625318 101.26637138 -58.56640625 95.65625 C-56.49887218 93.12361847 -54.33886659 90.7176884 -52.125 88.3125 C-47.60466427 83.34561464 -43.49059507 78.1200021 -39.37890625 72.81640625 C-37.47612989 70.36386691 -35.54798518 67.93590354 -33.58984375 65.52734375 C-25.84326489 55.9934865 -18.605262 46.14466474 -11.5 36.125 C-12.49 35.63 -12.49 35.63 -13.5 35.125 Z " fill="#FFFFFF" transform="translate(1433.5,898.875)"/>
<path d="M0 0 C4.68127451 3.5695993 7.53573818 8.48221453 9.375 14 C10.89894904 35.07403813 4.69857668 52.90032902 -3.625 72 C-3.93808105 72.71865234 -4.25116211 73.43730469 -4.57373047 74.17773438 C-8.56569741 83.2140767 -13.1119327 91.93916913 -17.8125 100.625 C-18.31168945 101.54974121 -18.81087891 102.47448242 -19.32519531 103.42724609 C-27.06270299 117.52516012 -27.06270299 117.52516012 -31.10546875 118.75390625 C-31.99878906 118.69074219 -32.89210938 118.62757813 -33.8125 118.5625 C-34.85792969 118.49417969 -35.90335938 118.42585937 -36.98046875 118.35546875 C-38.18316406 118.23816406 -39.38585937 118.12085938 -40.625 118 C-42.0792929 117.91055144 -43.53373046 117.82343341 -44.98828125 117.73828125 C-55.9282565 116.96290688 -66.13805643 115.03667952 -74.125 106.8125 C-81.80291222 96.29512321 -82.12568068 83.42591123 -80.32763672 70.93408203 C-75.99237562 47.86909264 -62.0499481 23.90982214 -43.2265625 9.77734375 C-31.31112537 1.63691748 -14.54378956 -8.1688078 0 0 Z M-15.625 59 C-27.82385537 72.21754893 -35.22411477 86.32966627 -38.625 104 C-34.49021363 102.62173788 -33.64624446 99.8874157 -31.75390625 96.21875 C-31.20850441 95.18747986 -31.20850441 95.18747986 -30.65208435 94.13537598 C-29.8819654 92.67497107 -29.11646731 91.21212159 -28.35522461 89.74707031 C-27.20409057 87.53192548 -26.04001845 85.3240225 -24.87304688 83.1171875 C-19.32830127 72.7528781 -19.32830127 72.7528781 -14.625 62 C-14.955 61.01 -15.285 60.02 -15.625 59 Z " fill="#FFFFFF" transform="translate(926.625,877)"/>
<path d="M0 0 C6.63620104 5.48207912 9.70531502 10.82104291 10.875 19.375 C11.63017172 47.51335498 -3.02247693 74.30390828 -15.67138672 98.55273438 C-17.05535719 101.23978487 -18.37567585 103.9509507 -19.69140625 106.671875 C-25.17356188 117.56285737 -25.17356188 117.56285737 -29.78125 119.48046875 C-33.07806777 119.57556926 -35.89302424 119.03955232 -39.125 118.375 C-40.59465063 118.2324823 -42.06633434 118.1100006 -43.5390625 118.00390625 C-53.70545941 117.23100987 -64.72580482 116.18526158 -72.125 108.375 C-80.11972689 97.11425686 -81.5336346 86.40051658 -79.625 72.81640625 C-75.92615825 53.96492303 -67.22236032 35.49737113 -54.125 21.375 C-53.39410156 20.57578125 -52.66320313 19.7765625 -51.91015625 18.953125 C-40.27183025 6.762541 -17.62376588 -9.3370945 0 0 Z M-15.125 59.375 C-25.99635805 71.33794933 -37.72113779 87.45959017 -37.125 104.375 C-34.31350983 101.88420612 -32.75156555 99.14621511 -30.98046875 95.8515625 C-30.38556641 94.74683594 -29.79066406 93.64210938 -29.17773438 92.50390625 C-28.56220703 91.34761719 -27.94667969 90.19132813 -27.3125 89 C-26.70857422 87.88238281 -26.10464844 86.76476562 -25.48242188 85.61328125 C-19.24396082 74.25240922 -19.24396082 74.25240922 -14.125 62.375 C-14.455 61.385 -14.785 60.395 -15.125 59.375 Z " fill="#FFFFFF" transform="translate(1179.125,876.625)"/>
<path d="M0 0 C3.15918321 1.54276983 6.0117429 3.29656218 8.9375 5.25 C27.8926554 17.35814043 48.09730507 20.64699964 70 23 C62.72002267 37.8401799 51.1839689 51.82945175 39.97265625 63.875 C38.10284121 65.88921659 36.33206572 67.96037089 34.5625 70.0625 C26.51369146 79.21894274 16.19057685 89.35148014 3.625 91.125 C-0.66307624 91.25535752 -3.45417102 90.55629531 -7 88 C-15.29503037 79.51206195 -16.3125 70.21295922 -16.3125 58.90722656 C-15.97954199 38.64975867 -9.381568 17.84173201 0 0 Z M20 41 C14.86637199 50.38214774 12.37127242 59.26505865 13 70 C18.20716425 66.59818496 22.54381099 62.60827514 26.75 58.0625 C27.20930908 57.57297852 27.66861816 57.08345703 28.1418457 56.57910156 C31.41764255 52.96434701 33.71246057 49.27042993 36 45 C35.26394531 44.87882812 34.52789063 44.75765625 33.76953125 44.6328125 C32.79371094 44.46523437 31.81789063 44.29765625 30.8125 44.125 C29.84957031 43.96257812 28.88664063 43.80015625 27.89453125 43.6328125 C25.08967396 43.01960483 22.62775253 42.14333657 20 41 Z " fill="#FFFFFF" transform="translate(814,994)"/>
<path d="M0 0 C3.60470323 1.2941579 6.29600361 2.84609871 9.3125 5.1875 C26.97192688 17.67894754 48.88273824 21.27245844 70 23 C68.38465571 27.86492578 65.63896887 31.68402169 62.6875 35.8125 C62.15987061 36.55443604 61.63224121 37.29637207 61.08862305 38.06079102 C52.78690572 49.60256049 43.751428 60.65154579 34 71 C33.27425781 71.77859375 32.54851562 72.5571875 31.80078125 73.359375 C24.63227604 80.81562126 14.56019635 90.43121619 3.6484375 91.15625 C-1.5000645 90.8118686 -5.02861567 89.41723768 -9 86 C-17.32998082 75.35613561 -16.9021652 61.73445566 -15.43261719 48.89624023 C-14.0901335 38.98423568 -11.17200194 29.6380333 -8 20.1875 C-7.66841888 19.19849701 -7.66841888 19.19849701 -7.33013916 18.18951416 C-5.21127428 11.91774447 -3.06286054 5.88062585 0 0 Z M20 41 C14.86637199 50.38214774 12.37127242 59.26505865 13 70 C18.20716425 66.59818496 22.54381099 62.60827514 26.75 58.0625 C27.20930908 57.57297852 27.66861816 57.08345703 28.1418457 56.57910156 C31.41764255 52.96434701 33.71246057 49.27042993 36 45 C35.02160156 44.81824219 35.02160156 44.81824219 34.0234375 44.6328125 C29.21353658 43.71056011 24.60974535 42.69832723 20 41 Z " fill="#FFFFFF" transform="translate(1067,994)"/>
<path d="M0 0 C1.15480412 3.36548351 0.87494757 5.10345375 -0.484375 8.359375 C-0.83669189 9.2150708 -1.18900879 10.0707666 -1.55200195 10.95239258 C-2.14501099 12.33720825 -2.14501099 12.33720825 -2.75 13.75 C-3.15758545 14.72155029 -3.5651709 15.69310059 -3.98510742 16.6940918 C-29.8090409 77.68502179 -61.38924471 136.7832313 -98 192 C-98.66644531 193.0091748 -99.33289063 194.01834961 -100.01953125 195.05810547 C-109.13279606 208.85511292 -118.29294621 222.61063105 -128 236 C-128.54043945 236.74620605 -129.08087891 237.49241211 -129.63769531 238.26123047 C-140.77083248 253.59070395 -152.31758055 268.5754811 -164.31445312 283.23852539 C-167.78971799 287.48978423 -171.19374648 291.78905882 -174.5625 296.125 C-178.77587701 301.53583887 -183.16441888 306.76926277 -187.65380859 311.95263672 C-190.72799814 315.50363116 -193.73356658 319.09739711 -196.6875 322.75 C-200.28755167 327.18333669 -204.03903487 331.44513346 -207.8828125 335.66796875 C-209.78051169 337.75823889 -211.64733415 339.86986115 -213.5 342 C-217.61235038 346.71599815 -221.8001262 351.36193712 -226 356 C-226.83402344 356.928125 -227.66804688 357.85625 -228.52734375 358.8125 C-234.24877083 365.13043417 -240.13921385 371.22765113 -246.22924805 377.19238281 C-249.3993319 380.31478599 -252.2323671 383.50751086 -255 387 C-256.11473308 388.03455506 -257.2612574 389.03595261 -258.4375 390 C-263.02581437 393.9056838 -267.22109106 398.1649094 -271.43139648 402.46875 C-276.88574056 408.00799622 -276.88574056 408.00799622 -280 410 C-280.66 410 -281.32 410 -282 410 C-280.64397927 406.99322527 -279.10904732 404.83123343 -276.83203125 402.453125 C-276.19354248 401.78112061 -275.55505371 401.10911621 -274.8972168 400.41674805 C-274.20926025 399.70172119 -273.52130371 398.98669434 -272.8125 398.25 C-271.35656982 396.72024337 -269.90084553 395.19029077 -268.4453125 393.66015625 C-267.70442383 392.88430176 -266.96353516 392.10844727 -266.20019531 391.30908203 C-262.84359902 387.78636923 -259.51401484 384.23859877 -256.1875 380.6875 C-255.25780396 379.69580811 -255.25780396 379.69580811 -254.30932617 378.68408203 C-248.82771736 372.83013477 -243.39596658 366.93300591 -238 361 C-236.88431641 359.77796875 -236.88431641 359.77796875 -235.74609375 358.53125 C-230.97457986 353.27319534 -226.32633492 347.91847651 -221.71850586 342.51733398 C-218.57942569 338.83790013 -215.41818511 335.17947478 -212.23730469 331.53613281 C-205.24968221 323.52427979 -198.45747601 315.36366369 -191.73632812 307.12744141 C-190.0196732 305.02410465 -188.29907853 302.92403891 -186.578125 300.82421875 C-180.41413533 293.2883573 -174.36220172 285.68669689 -168.47265625 277.93359375 C-166.74841487 275.6696694 -165.01482406 273.41303555 -163.28125 271.15625 C-136.92401953 236.79361676 -112.87353775 200.76378497 -90 164 C-89.09000244 162.53941162 -89.09000244 162.53941162 -88.16162109 161.04931641 C-78.50187032 145.52016743 -69.12726095 129.84742248 -60 114 C-58.97268027 112.22524651 -57.94533715 110.45050656 -56.91796875 108.67578125 C-38.99905356 77.62353047 -22.65894072 45.76121287 -7.08154297 13.48217773 C-6.48518036 12.24856758 -6.48518036 12.24856758 -5.87677002 10.99003601 C-5.12494662 9.43393711 -4.37498834 7.87693533 -3.62713623 6.31892395 C-1.11141259 1.11141259 -1.11141259 1.11141259 0 0 Z " fill="#FFFFFF" transform="translate(532,740)"/>
<path d="M0 0 C0.66 0 1.32 0 2 0 C0.50264241 4.27125738 -1.72494556 7.81930219 -4.265625 11.52734375 C-5.17266141 12.86953743 -6.0795546 14.21182791 -6.98632812 15.55419922 C-7.71686401 16.63057648 -7.71686401 16.63057648 -8.4621582 17.72869873 C-11.19609955 21.76656821 -13.90073359 25.82404201 -16.609375 29.87890625 C-17.18447815 30.73890228 -17.7595813 31.59889832 -18.35211182 32.48495483 C-35.46751449 58.05331244 -35.46751449 58.05331244 -52 84 C-52.62197266 84.99741211 -53.24394531 85.99482422 -53.88476562 87.02246094 C-68.59420511 110.63347456 -82.58042616 134.63356405 -96 159 C-96.56734863 160.02883301 -97.13469727 161.05766602 -97.71923828 162.11767578 C-115.42054767 194.35343144 -131.79870325 227.30236899 -146.41053772 261.05076599 C-148.21735957 265.22110283 -150.06083725 269.37175644 -151.9453125 273.5078125 C-169.7835889 312.71301967 -185.56379175 353.00048467 -199.7421875 393.66796875 C-200.19668022 394.97041031 -200.19668022 394.97041031 -200.66035461 396.29916382 C-202.10959528 400.45949097 -203.54761752 404.62318257 -204.96655273 408.79394531 C-205.47375561 410.26759188 -205.98099625 411.74122545 -206.48828125 413.21484375 C-206.7146225 413.89185837 -206.94096375 414.56887299 -207.17416382 415.2664032 C-208.77408062 419.88704031 -208.77408062 419.88704031 -211 421 C-210.42272932 413.16919772 -208.52949207 406.01754341 -206.3125 398.5 C-206.1191507 397.84061432 -205.92580139 397.18122864 -205.72659302 396.50186157 C-192.53340116 351.674715 -175.84454106 307.76570202 -156.91418457 265.06408691 C-156.00959021 263.02165319 -155.10935554 260.97734519 -154.20996094 258.93261719 C-140.99507468 228.94354344 -126.58487778 199.38165079 -110.55615234 170.79150391 C-108.74440767 167.5415057 -106.95899895 164.27741356 -105.17578125 161.01171875 C-97.06271768 146.17049549 -88.73254955 131.48776188 -80 117 C-79.35450195 115.92427734 -78.70900391 114.84855469 -78.04394531 113.74023438 C-63.7845431 89.97945495 -49.11364696 66.55910575 -33 44 C-32.13212943 42.77392072 -31.26489065 41.54739386 -30.3984375 40.3203125 C-7.0525317 7.33265562 -7.0525317 7.33265562 0 0 Z " fill="#FFFFFF" transform="translate(851,721)"/>
<path d="M0 0 C0.66 0 1.32 0 2 0 C1.3606944 4.17727354 -0.93142094 7.41873987 -3.16015625 10.91015625 C-3.59868423 11.60399918 -4.03721222 12.2978421 -4.48902893 13.01271057 C-10.60667015 22.61850886 -17.03852808 32.01814088 -23.4375 41.4375 C-31.68063354 53.58253234 -39.86581588 65.75152795 -47.78607178 78.1101532 C-49.90840157 81.41420206 -52.049425 84.70612849 -54.1875 88 C-56.12755534 90.99835302 -58.06397542 93.99904298 -60 97 C-60.58910156 97.91249512 -61.17820312 98.82499023 -61.78515625 99.76513672 C-75.89950053 121.65034046 -89.59839475 143.756089 -102.71459961 166.25292969 C-107.25349638 174.0365046 -111.84786926 181.78330671 -116.5 189.5 C-121.4971644 197.79082535 -126.42539026 206.11821225 -131.30465698 214.47866821 C-139.43047984 228.40073993 -147.7190256 242.21623168 -156.140625 255.96142578 C-157.84058669 258.73948818 -159.53073593 261.52326342 -161.21875 264.30859375 C-162.1243545 265.78945744 -163.03054524 267.26996289 -163.9375 268.75 C-164.53002563 269.73383667 -164.53002563 269.73383667 -165.13452148 270.73754883 C-166.03502639 272.19361947 -167.00921359 273.60379333 -168 275 C-168.66 275 -169.32 275 -170 275 C-169.42637054 270.04384144 -167.84104406 265.94913829 -165.6875 261.5 C-165.33631104 260.76571777 -164.98512207 260.03143555 -164.62329102 259.27490234 C-160.29472103 250.3616669 -155.49988055 241.7003766 -150.68896484 233.04101562 C-148.93892619 229.89003537 -147.19752048 226.73438886 -145.45703125 223.578125 C-131.97062302 199.16338492 -118.11047584 174.9830697 -103.81054688 151.03613281 C-102.16413058 148.27523299 -100.5258447 145.50972773 -98.890625 142.7421875 C-71.89740623 97.1851954 -41.59795502 52.72624055 -9 11 C-8.53480957 10.40413086 -8.06961914 9.80826172 -7.59033203 9.19433594 C-2.20930233 2.34074823 -2.20930233 2.34074823 0 0 Z " fill="#FFFFFF" transform="translate(1595,761)"/>
<path d="M0 0 C0.66 0.33 1.32 0.66 2 1 C0.09536204 18.52039123 -2.4762428 35.86770083 -5.46588516 53.23396683 C-5.82040905 55.2960018 -6.17284123 57.35838509 -6.52474976 59.42086792 C-14.81918273 108.00413463 -23.6826263 156.48926792 -33.0527916 204.8763237 C-33.49119027 207.14197126 -33.9281819 209.40788636 -34.36489868 211.67385864 C-44.12383822 262.24767643 -44.12383822 262.24767643 -47 268 C-47.66 268 -48.32 268 -49 268 C-47.72130915 252.49699112 -45.43327998 237.23695961 -42.84240341 221.9032135 C-42.49331933 219.83542732 -42.14634566 217.76729514 -41.79971313 215.69909668 C-32.27837667 158.97924785 -21.81120631 102.38934794 -10.57025528 45.98570251 C-10.13084048 43.77932603 -9.69315763 41.57261133 -9.25570679 39.36584473 C-8.45259243 35.32024351 -7.6377252 31.27711194 -6.8203125 27.234375 C-6.4776963 25.51305359 -6.4776963 25.51305359 -6.12815857 23.75695801 C-4.48033318 15.70282795 -2.35174233 7.87268941 0 0 Z " fill="#FFFFFF" transform="translate(562,741)"/>
<path d="M0 0 C1.45247241 0.00502586 2.90494651 0.00958684 4.35742188 0.01367188 C7.88415015 0.02458958 11.41081402 0.04179414 14.9375 0.0625 C14.9375 0.7225 14.9375 1.3825 14.9375 2.0625 C14.03322266 2.15748779 13.12894531 2.25247559 12.19726562 2.3503418 C-52.42703715 9.24922359 -112.8117116 30.1517496 -155.6875 81.4375 C-157.16135408 83.30032454 -158.61929856 85.17582814 -160.0625 87.0625 C-160.83980469 88.073125 -161.61710937 89.08375 -162.41796875 90.125 C-172.81558761 103.98224325 -181.35585086 119.15166605 -187.65283203 135.28588867 C-189.88161954 140.97205977 -189.88161954 140.97205977 -192.0625 142.0625 C-191.56211002 135.77364817 -190.48646896 130.52355032 -188.125 124.6875 C-187.81997559 123.92219971 -187.51495117 123.15689941 -187.20068359 122.3684082 C-166.96839311 73.04030026 -125.72269236 35.72441765 -77.140625 15.08984375 C-52.42509076 5.01505685 -26.62830225 -0.16108892 0 0 Z " fill="#FFFFFF" transform="translate(482.0625,685.9375)"/>
<path d="M0 0 C0.33 0 0.66 0 1 0 C1.26184638 6.87801339 0.6733057 13.01825562 -1 19.6875 C-1.22220215 20.58686279 -1.4444043 21.48622559 -1.67333984 22.4128418 C-11.04958764 58.99915013 -28.44806848 93.28192524 -53 122 C-53.9473212 123.13222165 -54.89389502 124.26506892 -55.83984375 125.3984375 C-69.3229185 141.46025437 -84.52172714 155.34781809 -102 167 C-102.99 167 -103.98 167 -105 167 C-102.18195505 160.58111983 -96.34852338 156.11595608 -91.125 151.625 C-83.46500807 145.01844508 -76.53505036 137.70731712 -70 130 C-69.17886719 129.05640625 -68.35773437 128.1128125 -67.51171875 127.140625 C-36.8691536 91.74821429 -16.94742494 50.46396199 -2.71191406 6.11450195 C-1.0954885 1.0954885 -1.0954885 1.0954885 0 0 Z " fill="#FFFFFF" transform="translate(956,919)"/>
<path d="M0 0 C0.66 0 1.32 0 2 0 C1.23232394 34.33605648 -16.71329353 72.15813158 -36 100 C-36.4120166 100.60295898 -36.8240332 101.20591797 -37.24853516 101.82714844 C-45.86347066 114.38383891 -55.51847975 125.96157379 -66 137 C-66.75821045 137.80123291 -66.75821045 137.80123291 -67.53173828 138.61865234 C-77.5412346 149.1212888 -89.0283342 160.21349935 -102 167 C-102.99 167 -103.98 167 -105 167 C-103.43912892 163.00491331 -100.64193669 160.6386703 -97.5 157.875 C-85.16127034 146.73439426 -73.17989483 135.1684878 -63 122 C-62.05393966 120.83986514 -61.1044776 119.68249923 -60.15234375 118.52734375 C-48.96353777 104.89834987 -39.67253712 90.33451041 -31 75 C-30.42983154 73.99960693 -30.42983154 73.99960693 -29.84814453 72.97900391 C-16.850632 49.9894774 -8.56029678 24.87850104 0 0 Z " fill="#FFFFFF" transform="translate(1209,919)"/>
<path d="M0 0 C-2.16527445 2.022342 -4.33218072 4.04288878 -6.5 6.0625 C-7.10070313 6.62388672 -7.70140625 7.18527344 -8.3203125 7.76367188 C-11.47049516 10.69602275 -14.65038057 13.57646981 -17.91015625 16.38671875 C-29.20626578 26.22186478 -39.947443 37.0579737 -49 49 C-49.91300667 50.15057819 -50.82715008 51.30025492 -51.7421875 52.44921875 C-69.7365236 75.36348773 -82.63777017 101.70599322 -92.7109375 128.9140625 C-94.97145729 135.01529046 -97.45432986 141.01293624 -100 147 C-100.33 147 -100.66 147 -101 147 C-103.52933905 112.22158807 -78.24528264 71.57820213 -57 46 C-54.73215433 43.38899347 -52.43230512 40.81762226 -50.08984375 38.2734375 C-48.14128585 36.15369788 -46.25242667 33.99516531 -44.375 31.8125 C-34.08282209 20.06343846 -21.84549741 10.78568589 -9 2 C-8.12085938 1.38898437 -7.24171875 0.77796875 -6.3359375 0.1484375 C-3.58437024 -1.20433971 -2.8229487 -0.87060125 0 0 Z " fill="#FFFFFF" transform="translate(1375,886)"/>
<path d="M0 0 C0 0.66 0 1.32 0 2 C-1.55898938 3.08857866 -3.17600644 4.09433668 -4.8125 5.0625 C-10.99483099 8.88965728 -16.52318889 13.22710505 -22 18 C-22.63679687 18.55171875 -23.27359375 19.1034375 -23.9296875 19.671875 C-39.15663875 33.84627201 -47.52804657 54.44014521 -48.3125 74.99609375 C-48.51029374 85.79782946 -48.09443144 96.37824057 -46 107 C-49 106 -49 106 -50.09765625 103.91796875 C-57.69022746 82.43129962 -56.75429428 59.39481834 -46.93164062 38.79052734 C-44.16658187 33.47633947 -40.67042173 28.72361834 -37 24 C-36.37351562 23.18917969 -35.74703125 22.37835937 -35.1015625 21.54296875 C-26.91296886 11.67865025 -13.42331553 -0.36279231 0 0 Z " fill="#FFFFFF" transform="translate(877,867)"/>
<path d="M0 0 C-3.05510211 3.47649551 -6.15732375 5.79213608 -10.125 8.1875 C-29.63898515 20.36736993 -42.07262644 39.00573549 -47.2734375 61.2109375 C-48.55871488 67.91372813 -49.19381525 74.42637612 -49.1875 81.25 C-49.18814453 81.98508789 -49.18878906 82.72017578 -49.18945312 83.47753906 C-49.13714138 88.93460562 -48.53895721 94.1300691 -47.4375 99.484375 C-46.99289804 102.04083626 -46.92548978 104.41076979 -47 107 C-47.66 107 -48.32 107 -49 107 C-49.63440928 105.52484445 -50.25690827 104.04456668 -50.875 102.5625 C-51.22304687 101.73878906 -51.57109375 100.91507813 -51.9296875 100.06640625 C-58.54923597 81.10164146 -56.56582707 58.7751555 -48.2644043 40.71386719 C-44.7121659 33.39907736 -40.53672657 26.99152911 -35 21 C-34.154375 20.07445312 -33.30875 19.14890625 -32.4375 18.1953125 C-24.18619195 9.54550378 -12.81167148 -0.93743938 0 0 Z " fill="#FFFFFF" transform="translate(1131,867)"/>
<path d="M0 0 C0.33 0 0.66 0 1 0 C0.55862212 5.42775504 -0.30055383 10.57409243 -1.5234375 15.8828125 C-7.20475915 40.78096093 -8.88659518 65.52734914 -10 91 C-10.99 90.67 -11.98 90.34 -13 90 C-18.56706345 62.31380051 -15.26243 27.22188443 -2 2 C-1.34 1.34 -0.68 0.68 0 0 Z " fill="#FFFFFF" transform="translate(788,973)"/>
<path d="M0 0 C0.66 0 1.32 0 2 0 C1.86948242 0.64211426 1.73896484 1.28422852 1.60449219 1.94580078 C0.51210617 7.33216301 -0.56643184 12.72093398 -1.62890625 18.11328125 C-2.43117449 22.18284708 -3.26324106 26.24156942 -4.15234375 30.29296875 C-6.97257635 43.66662365 -7.79153937 56.99346575 -8.4050293 70.61450195 C-8.43927002 71.37230453 -8.47351074 72.13010712 -8.50878906 72.91087341 C-8.57094392 74.32930106 -8.62958618 75.74788933 -8.68383789 77.16664124 C-8.87917541 81.82898817 -9.37392452 86.3804826 -10 91 C-10.66 91 -11.32 91 -12 91 C-14.48788558 83.27760317 -14.39640829 75.53230011 -14.375 67.5 C-14.37478851 66.77167969 -14.37457703 66.04335937 -14.37435913 65.29296875 C-14.31259672 43.8991725 -12.24457745 18.28870929 0 0 Z " fill="#FFFFFF" transform="translate(1041,973)"/>
</svg>
