<svg width="28" height="26" viewBox="0 0 28 26" fill="none" xmlns="http://www.w3.org/2000/svg">
<rect x="1" width="26" height="26" rx="4" fill="#674F36"/>
<path d="M3.04865 15V9.18182H4.27876V13.9858H6.77308V15H3.04865ZM12.7077 12.0909C12.7077 12.7254 12.5875 13.2652 12.3469 13.7102C12.1083 14.1553 11.7826 14.4953 11.3697 14.7301C10.9587 14.9631 10.4966 15.0795 9.98331 15.0795C9.46626 15.0795 9.00225 14.9621 8.59126 14.7273C8.18028 14.4924 7.85547 14.1525 7.61683 13.7074C7.3782 13.2623 7.25888 12.7235 7.25888 12.0909C7.25888 11.4564 7.3782 10.9167 7.61683 10.4716C7.85547 10.0265 8.18028 9.6875 8.59126 9.45455C9.00225 9.2197 9.46626 9.10227 9.98331 9.10227C10.4966 9.10227 10.9587 9.2197 11.3697 9.45455C11.7826 9.6875 12.1083 10.0265 12.3469 10.4716C12.5875 10.9167 12.7077 11.4564 12.7077 12.0909ZM11.4606 12.0909C11.4606 11.6799 11.399 11.3333 11.2759 11.0511C11.1547 10.7689 10.9833 10.5549 10.7617 10.4091C10.5401 10.2633 10.2807 10.1903 9.98331 10.1903C9.68596 10.1903 9.42649 10.2633 9.2049 10.4091C8.98331 10.5549 8.81096 10.7689 8.68786 11.0511C8.56664 11.3333 8.50604 11.6799 8.50604 12.0909C8.50604 12.5019 8.56664 12.8485 8.68786 13.1307C8.81096 13.4129 8.98331 13.6269 9.2049 13.7727C9.42649 13.9186 9.68596 13.9915 9.98331 13.9915C10.2807 13.9915 10.5401 13.9186 10.7617 13.7727C10.9833 13.6269 11.1547 13.4129 11.2759 13.1307C11.399 12.8485 11.4606 12.5019 11.4606 12.0909ZM17.4769 11.0625C17.4371 10.9242 17.3813 10.8021 17.3093 10.696C17.2373 10.5881 17.1493 10.4972 17.0451 10.4233C16.9428 10.3475 16.8254 10.2898 16.6928 10.25C16.5621 10.2102 16.4173 10.1903 16.2582 10.1903C15.9608 10.1903 15.6995 10.2642 15.4741 10.4119C15.2506 10.5597 15.0763 10.7746 14.9513 11.0568C14.8263 11.3371 14.7638 11.6799 14.7638 12.0852C14.7638 12.4905 14.8254 12.8352 14.9485 13.1193C15.0716 13.4034 15.2459 13.6203 15.4712 13.7699C15.6966 13.9176 15.9627 13.9915 16.2695 13.9915C16.5479 13.9915 16.7856 13.9422 16.9826 13.8438C17.1815 13.7434 17.333 13.6023 17.4371 13.4205C17.5432 13.2386 17.5962 13.0237 17.5962 12.7756L17.8462 12.8125H16.3462V11.8864H18.7809V12.6193C18.7809 13.1307 18.6729 13.5701 18.457 13.9375C18.2411 14.303 17.9438 14.5852 17.565 14.7841C17.1862 14.9811 16.7525 15.0795 16.2638 15.0795C15.7184 15.0795 15.2392 14.9593 14.8263 14.7188C14.4135 14.4763 14.0915 14.1326 13.8604 13.6875C13.6313 13.2405 13.5167 12.7102 13.5167 12.0966C13.5167 11.625 13.5849 11.2045 13.7212 10.8352C13.8595 10.464 14.0527 10.1496 14.3008 9.89205C14.5489 9.63447 14.8377 9.43845 15.1673 9.30398C15.4968 9.16951 15.8538 9.10227 16.2383 9.10227C16.5678 9.10227 16.8746 9.15057 17.1587 9.24716C17.4428 9.34186 17.6947 9.47633 17.9144 9.65057C18.136 9.82481 18.3169 10.0322 18.457 10.2727C18.5972 10.5114 18.6871 10.7746 18.7269 11.0625H17.4769ZM25.0515 12.0909C25.0515 12.7254 24.9312 13.2652 24.6907 13.7102C24.4521 14.1553 24.1263 14.4953 23.7134 14.7301C23.3024 14.9631 22.8403 15.0795 22.3271 15.0795C21.81 15.0795 21.346 14.9621 20.935 14.7273C20.524 14.4924 20.1992 14.1525 19.9606 13.7074C19.7219 13.2623 19.6026 12.7235 19.6026 12.0909C19.6026 11.4564 19.7219 10.9167 19.9606 10.4716C20.1992 10.0265 20.524 9.6875 20.935 9.45455C21.346 9.2197 21.81 9.10227 22.3271 9.10227C22.8403 9.10227 23.3024 9.2197 23.7134 9.45455C24.1263 9.6875 24.4521 10.0265 24.6907 10.4716C24.9312 10.9167 25.0515 11.4564 25.0515 12.0909ZM23.8043 12.0909C23.8043 11.6799 23.7428 11.3333 23.6197 11.0511C23.4985 10.7689 23.3271 10.5549 23.1055 10.4091C22.8839 10.2633 22.6244 10.1903 22.3271 10.1903C22.0297 10.1903 21.7702 10.2633 21.5487 10.4091C21.3271 10.5549 21.1547 10.7689 21.0316 11.0511C20.9104 11.3333 20.8498 11.6799 20.8498 12.0909C20.8498 12.5019 20.9104 12.8485 21.0316 13.1307C21.1547 13.4129 21.3271 13.6269 21.5487 13.7727C21.7702 13.9186 22.0297 13.9915 22.3271 13.9915C22.6244 13.9915 22.8839 13.9186 23.1055 13.7727C23.3271 13.6269 23.4985 13.4129 23.6197 13.1307C23.7428 12.8485 23.8043 12.5019 23.8043 12.0909Z" fill="white"/>
</svg>
